<?xml version="1.0" encoding="iso-8859-1"?>
<!-- Uploaded to: SVG Repo, www.svgrepo.com, Generator: SVG Repo Mixer Tools -->
<!DOCTYPE svg PUBLIC "-//W3C//DTD SVG 1.1//EN" "http://www.w3.org/Graphics/SVG/1.1/DTD/svg11.dtd">
<svg fill="#000000" height="800px" width="800px" version="1.1" id="Capa_1" xmlns="http://www.w3.org/2000/svg" xmlns:xlink="http://www.w3.org/1999/xlink"
	viewBox="0 0 59.979 59.979" xml:space="preserve" color="#EE6952">
<g>
	<path d="M39.499,28.979c-3.301,0-6.07,2.301-6.803,5.381c-0.62-0.241-1.365-0.381-2.197-0.381s-1.577,0.14-2.197,0.381
		c-0.734-3.08-3.502-5.381-6.803-5.381c-3.859,0-7,3.141-7,7s3.141,7,7,7c3.634,0,6.628-2.785,6.966-6.332
		c0.003-0.03,0.017-0.055,0.017-0.085c0.096-0.171,0.813-0.583,2.017-0.583s1.921,0.412,2,0.5c0,0.06,0.024,0.111,0.034,0.167
		c0.338,3.547,3.332,6.333,6.966,6.333c3.859,0,7-3.141,7-7S43.358,28.979,39.499,28.979z M21.499,40.979c-2.757,0-5-2.243-5-5
		s2.243-5,5-5s5,2.243,5,5S24.256,40.979,21.499,40.979z M39.499,40.979c-2.757,0-5-2.243-5-5s2.243-5,5-5s5,2.243,5,5
		S42.256,40.979,39.499,40.979z" fill="currentColor"/>
	<path d="M33.499,24.979h3l-1.8,2.4c-0.332,0.441-0.242,1.068,0.2,1.399c0.18,0.135,0.39,0.2,0.599,0.2
		c0.305,0,0.604-0.138,0.801-0.4l3-4c0.228-0.303,0.264-0.708,0.095-1.047c-0.17-0.339-0.516-0.553-0.895-0.553h-3l1.8-2.4
		c0.332-0.441,0.242-1.068-0.2-1.399c-0.441-0.331-1.068-0.242-1.399,0.2l-3,4c-0.228,0.303-0.264,0.708-0.095,1.047
		C32.774,24.765,33.12,24.979,33.499,24.979z" fill="currentColor"/>
</g>
</svg>
