<?xml version="1.0" encoding="utf-8"?><!-- Uploaded to: SVG Repo, www.svgrepo.com, Generator: SVG Repo Mixer Tools -->
<svg version="1.1" id="Uploaded to svgrepo.com" xmlns="http://www.w3.org/2000/svg" xmlns:xlink="http://www.w3.org/1999/xlink"
	 width="800px" height="800px" viewBox="0 0 32 32" xml:space="preserve" fill="current-color">
<!-- <style type="text/css">
	.feather_een{fill:#111918;}
	.st0{fill:#0B1719;}
</style> -->
<path class="feather_een" d="M19,10.5c0,0.276-0.224,0.5-0.5,0.5h-5c-0.276,0-0.5-0.224-0.5-0.5c0-0.276,0.224-0.5,0.5-0.5h5
	C18.776,10,19,10.224,19,10.5z M18.5,12h-5c-0.276,0-0.5,0.224-0.5,0.5c0,0.276,0.224,0.5,0.5,0.5h5c0.276,0,0.5-0.224,0.5-0.5
	C19,12.224,18.776,12,18.5,12z M26.633,25.639l-3.963-0.604l-1.459,3.734c-0.323,0.827-1.484,0.854-1.845,0.043L16,21.248
	l-3.366,7.564c-0.361,0.811-1.522,0.785-1.845-0.043L9.33,25.036l-3.963,0.604c-0.878,0.134-1.482-0.858-0.959-1.576l4.429-6.094
	C7.084,16.168,6,13.712,6,11c0-5.896,5.102-10.6,11.131-9.938c4.631,0.508,8.373,4.31,8.821,8.947
	c0.299,3.101-0.824,5.942-2.788,7.96l4.429,6.094C28.114,24.781,27.511,25.773,26.633,25.639z M15.038,20.951
	c-2.072-0.198-3.957-1.028-5.464-2.295l-4.356,5.994l4.754-0.724l1.75,4.479L15.038,20.951z M16,20c4.963,0,9-4.037,9-9
	c0-4.963-4.037-9-9-9s-9,4.037-9,9C7,15.963,11.037,20,16,20z M26.783,24.651l-4.356-5.994c-1.508,1.267-3.393,2.097-5.464,2.295
	l3.317,7.454l1.75-4.479L26.783,24.651z M24,11c0,4.418-3.582,8-8,8s-8-3.582-8-8s3.582-8,8-8S24,6.582,24,11z M23,11
	c0-3.86-3.14-7-7-7s-7,3.14-7,7s3.14,7,7,7S23,14.86,23,11z M18.5,8h-5C13.224,8,13,8.224,13,8.5C13,8.776,13.224,9,13.5,9h5
	C18.776,9,19,8.776,19,8.5C19,8.224,18.776,8,18.5,8z"/>
</svg>
