<?xml version="1.0" encoding="UTF-8"?>
<svg id="Calque_1" data-name="Calque 1" xmlns="http://www.w3.org/2000/svg" viewBox="0 0 537 585">
  <defs>
    <style>
      .cls-1 {
        fill: #fff;
      }
      .cls-2 {
        fill: transparent;
      }
    </style>
  </defs>
  <g>
    <circle class="cls-1" cx="268" cy="148" r="144"/>
    <path class="cls-2" d="M268,8c37.4,0,72.55,14.56,98.99,41.01,26.44,26.44,41.01,61.6,41.01,98.99s-14.56,72.55-41.01,98.99-61.6,41.01-98.99,41.01-72.55-14.56-98.99-41.01-41.01-61.6-41.01-98.99,14.56-72.55,41.01-98.99c26.44-26.44,61.6-41.01,98.99-41.01m0-8C186.26,0,120,66.26,120,148s66.26,148,148,148,148-66.26,148-148S349.74,0,268,0h0Z"/>
  </g>
  <g>
    <path class="cls-1" d="M4,581v-194.26l155.23-58.11c9.02,8.28,48.73,41.39,106.54,41.39,.76,0,1.52,0,2.29-.02,58.92-.91,99.17-33.77,108.25-41.91l156.69,58.66v194.26H4Z"/>
    <path class="cls-2" d="M377.13,332.66l151.87,56.85v187.48s-521,0-521,0v-187.48s150.39-56.3,150.39-56.3c4.81,4.18,13.95,11.47,26.72,18.74,17.66,10.06,45.98,22.05,80.66,22.05,.78,0,1.57,0,2.36-.02,35.25-.54,63.98-12.62,81.87-22.66,13-7.3,22.28-14.54,27.14-18.68m-1.73-9.19s-42.4,41.53-107.4,42.53c-.75,.01-1.49,.02-2.23,.02-63.74,0-105.6-42.01-105.6-42.01L0,383.97v201.03s537,0,537,0v-201.03s-161.6-60.5-161.6-60.5h0Z"/>
  </g>
</svg>
